<svg id="ico_accesibilidad" xmlns="http://www.w3.org/2000/svg" xmlns:xlink="http://www.w3.org/1999/xlink" width="58.752" height="58.752" viewBox="0 0 58.752 58.752">
  <defs>
    <clipPath id="clip-path">
      <rect id="Rectangle_7033" data-name="Rectangle 7033" width="58.752" height="58.752" fill="#566067"/>
    </clipPath>
  </defs>
  <circle id="Ellipse_219" data-name="Ellipse 219" cx="27.5" cy="27.5" r="27.5" transform="translate(1.916 1.916)" fill="#fff"/>
  <g id="Group_8429" data-name="Group 8429" clip-path="url(#clip-path)">
    <path id="Path_19385" data-name="Path 19385" d="M29.368,0A29.376,29.376,0,1,1,8.6,8.6,29.376,29.376,0,0,1,29.368,0m-.186,35.456L24.9,47.276a2.361,2.361,0,0,1-1.233,1.353,2.39,2.39,0,0,1-3.26-2.983l2.983-8.259a12.6,12.6,0,0,0,.559-1.912,19.5,19.5,0,0,0,.258-2c.115-1.209.2-2.519.258-3.776s.105-2.476.139-3.484c.043-1.257-.3-1.338-1.3-1.577l-.21-.048-8.6-1.62a2.382,2.382,0,1,1,.87-4.684L24.6,20.022c.368.033.727.076,1.1.119a27.572,27.572,0,0,0,3.432.253,38.723,38.723,0,0,0,4.273-.32c.43-.048.836-.1,1.243-.139L43.377,18.3a2.363,2.363,0,0,1,2.432,3.658l-.019.027a2.39,2.39,0,0,1-1.534,1l-8.336,1.568c-.277.062-.526.105-.746.139-.87.148-1.3.225-1.248,1.463.038.9.148,1.984.292,3.112.167,1.324.387,2.729.617,4.015a19.6,19.6,0,0,0,.478,2.175c.191.65.378,1.314.664,2.113l2.92,8.078a2.39,2.39,0,0,1-3.26,2.983,2.361,2.361,0,0,1-1.233-1.353l-4.292-11.8-.478-.875-.478.851Zm.186-25.581a4.221,4.221,0,1,1-2.983,1.238,4.221,4.221,0,0,1,2.983-1.238m17.374,2.117a24.578,24.578,0,1,0,7.17,17.374,24.578,24.578,0,0,0-7.17-17.374" transform="translate(0 0)" fill="#566067"/>
  </g>
</svg>
