<svg id="Capa_1" xmlns="http://www.w3.org/2000/svg" version="1.1" viewBox="0 0 250.2 225.4">
  <!-- Generator: Adobe Illustrator 29.1.0, SVG Export Plug-In . SVG Version: 2.1.0 Build 142)  -->
  <defs>
    <style>
      .st0 {
        fill: #405055;
      }
    </style>
  </defs>
  <g>
    <path class="st0" d="M193.5,76.2c0-13.8-11.2-25-25-25s-16.8,4.6-21.3,12h-9.1l-3.5-2.7c1.8-2.1,3.2-4.6,4.1-7.4l2.1-1,1.3-7.5-2.7-1c-.1-.7-.3-1.3-.5-1.9h1.2c.4,0,.2,0,.3,0,6.3,0,11.3-5.4,11.2-11.6,0-1.1-.2-2.2-.5-3.2-.4-1.4-1-2.4-1.3-2.8l-1.7,1.6c-1.3,1.3-3,2-4.8,2s-3.3-.6-4.5-1.7l-3-3c-.4-.4-.7-.7-1.1-1.1l-.4-.4c-2.1-2.2-4.9-3.3-7.9-3.3s-5.7,1.1-7.8,3.2-3.2,4.8-3.2,7.8.8,4.8,2.3,6.7c-2.3,1.9-3.8,4.6-4.4,7.8l-2.7,1,1.3,7.5,1.9.9c.8,2.9,2.3,5.4,4.1,7.5l-3.4,2.6h-9.1c-4.5-7.4-12.6-12-21.3-12-13.8,0-25,11.2-25,25s3.8,15.5,10.2,20.2l17.3,14.3h0c1.3.9,2,2.3,2,3.9,0,2.6-2.1,4.6-4.6,4.6s-4.6-2.1-4.6-4.6.4-2.3,1.2-3.1l-2.7-2.5c-1.4,1.5-2.2,3.5-2.2,5.6,0,4.6,3.7,8.3,8.3,8.3s8.3-3.7,8.3-8.3-1.2-5-3.2-6.6h0l-17.6-14.5-.3.3.2-.3c-5.5-4-8.8-10.4-8.8-17.2,0-11.7,9.5-21.3,21.3-21.3s12.9,3.1,16.8,8.3h-6c-3-2.6-6.9-4-10.9-4-9.3,0-16.9,7.6-16.9,16.9s2.4,10.1,6.5,13.3l18.1,14.1.7.6c0,0,.2.2.3.3,0,0,.2.2.3.2l.3.3.3.3.3.3s.2.2.2.3c0,0,.2.2.2.3,0,0,.2.2.2.3,0,0,0,.2.2.3,0,0,0,.2.2.3,0,0,0,.2.2.3,0,0,0,.2.2.3,0,0,0,.2.2.3,0,0,0,.2.2.3,0,0,0,.2.2.3,0,0,0,.2.2.3,0,0,0,.2.2.3,0,0,0,.2,0,.3,0,0,0,.2,0,.4,0,0,0,.2,0,.3,0,0,0,.2,0,.4,0,0,0,.2,0,.3v3.6h0c0,1.9-.4,3.8-1.2,5.5h0c-2.2,4.8-6.8,7.8-12,7.8s-13.2-5.9-13.2-13.2,1.1-6.2,3.2-8.6l-2.8-2.4c-2.6,3.1-4.1,7-4.1,11,0,9.3,7.6,16.9,16.9,16.9s10.7-2.7,13.8-7.1c6.4,9.3,17.1,15,28.6,15s22.1-5.7,28.6-15c3.1,4.4,8.2,7.1,13.8,7.1,9.3,0,16.9-7.6,16.9-16.9s-1.4-7.9-4.1-11l-2.8,2.4c2,2.4,3.2,5.4,3.2,8.6,0,7.3-5.9,13.2-13.2,13.2s-9.5-2.8-11.8-7.2l-.3-.5c-.8-1.7-1.2-3.6-1.2-5.5,0-4,1.8-7.7,4.9-10.3l.2-.2.5-.4,18.1-14.1c4.1-3.2,6.5-8.1,6.5-13.3,0-9.3-7.6-16.9-16.9-16.9s-7.8,1.4-10.9,4h-6c4-5.2,10.2-8.3,16.8-8.3,11.7,0,21.3,9.5,21.3,21.3s-3.3,13.2-8.8,17.2h0l-17.6,14.5h0c-2,1.6-3.2,4-3.2,6.6,0,4.6,3.7,8.3,8.3,8.3s8.3-3.7,8.3-8.3-.8-4.1-2.2-5.6l-2.7,2.5c.8.9,1.2,2,1.2,3.1,0,2.6-2.1,4.6-4.6,4.6s-4.6-2.1-4.6-4.6.8-3,2-3.8h0l17.3-14.3c6.4-4.7,10.2-12.2,10.2-20.2l.5-.2ZM80.8,80c-1.1-.9-1.8-2.3-1.8-3.8,0-2.7,2.2-5,5-5s2.2.4,3.1,1.1l4.4,3.6h0v12.8l-10.7-8.8h0ZM91.5,99l-15.9-12.3c-3.2-2.5-5.1-6.3-5.1-10.4,0-7.3,5.9-13.2,13.2-13.2s5.5.9,7.7,2.5v5.7l-2.1-1.7h0c-1.5-1.2-3.4-1.9-5.4-1.9-4.8,0-8.7,3.9-8.7,8.7s1.1,5,3.1,6.7h0l13,10.7v5.4l.2-.2ZM118.5,55.5l7.7,3.7,7.4-3.5c-1.7,3-4.4,5.4-7.5,6.5-3.1-1.2-5.8-3.6-7.6-6.6h0ZM121,52.5v-7.9l3.4-1.3v10.7l-3.4-1.6h0ZM128,54.1v-10.7l3.4,1.3v7.9l-3.4,1.6h0ZM137.4,49.7l-2.3,1.1v-4.7l2.7,1s-.4,2.6-.4,2.6ZM120.8,23.7c1.4-1.4,3.4-2.2,5.4-2.2s4,.8,5.5,2.3l.4.4c.4.4.7.8,1.1,1.2l3.1,3.1h0c1.9,1.7,4.3,2.6,6.8,2.6s3.4-.4,4.9-1.2v.3c0,4.4-3.5,8.1-7.9,8.2-1.2,0-2.4-.2-3.4-.7-.6-.7-1.2-1.4-1.9-2-2.4-2-5.4-3.1-8.6-3.1s-4.1.5-5.9,1.3c-1.1-1.4-1.8-3.1-1.8-4.9s.8-4,2.2-5.4h0ZM117.2,50.8l-2.3-1.1-.4-2.6,2.7-1s0,4.7,0,4.7ZM126.2,36.4c4.4,0,7.3,2.5,8.7,5.6l-8.7-3.2-8.7,3.2c1.4-3.1,4.3-5.6,8.7-5.6ZM120.4,63.2c1.5,1.2,3.3,2.1,5.1,2.7l.6.2.6-.2c1.9-.6,3.6-1.5,5.1-2.7l3.2,2.4c-2.2,2.5-5.4,4-8.9,4s-6.7-1.5-8.9-4l3.1-2.4h.1ZM160.9,88.3v-12.3h0l4.4-3.7c.9-.7,1.9-1.1,3.1-1.1,2.7,0,5,2.2,5,5s-.6,2.9-1.8,3.8l-10.7,8.8v-.5ZM160.9,65.4c2.2-1.6,4.9-2.5,7.7-2.5,7.3,0,13.2,5.9,13.2,13.2s-1.8,7.9-5,10.4l-15.9,12.3v-5.4l13-10.7h0c2-1.7,3.1-4.1,3.1-6.7,0-4.8-3.9-8.7-8.7-8.7s-3.9.7-5.4,1.9h0l-2.1,1.7v-5.7.2ZM157.1,66.9v34.9c-3.5,3.2-5.6,7.7-5.6,12.6s.4,4.2,1.2,6.1c-5.6,9.3-15.7,15-26.6,15s-21-5.7-26.6-15v-.2c0,0,0-.2,0-.3,0,0,0-.3,0-.4s0-.2,0-.3c0,0,0-.3,0-.4v-.3c0-.2,0-.3,0-.5v-3.5h0v-6s0-.2,0-.3v-.2s0-.2,0-.3h0c0-.4-.3-.6-.4-.9h0c0,0,0-.3,0-.4v-.2s0-.2,0-.2v-.2s0-.2,0-.2c0,0,0,0,0-.2,0,0,0,0,0-.2,0,0,0,0,0-.2,0,0,0,0,0-.2,0,0,0,0,0-.2,0,0,0,0,0-.2,0,0,0,0,0-.2l-.2-.2s0,0,0-.2l-.2-.2s0,0,0-.2l-.2-.2s0,0,0-.2l-.2-.2h0c0,0,0-.2-.2-.3h0c0,0,0-.2-.2-.3h0c0,0,0-.2-.2-.3h0v-35.1h18.5c2.9,4,7.5,6.4,12.5,6.4s9.6-2.4,12.5-6.4h18.5-1.2Z"/>
    <polygon class="st0" points="124.7 31.5 127.6 31.5 127.6 29.1 130.1 29.1 130.1 26.2 127.6 26.2 127.6 23.8 124.7 23.8 124.7 26.2 122.3 26.2 122.3 29.1 124.7 29.1 124.7 31.5"/>
    <path class="st0" d="M137.5,100.2l-.3.7c-.5,0-.9.3-1.2.7l-1.4.6s-.2,0-.2.3,0,.2.1.2h0l.5,1h.6c.4-.2.5-.2.8-.2s.6.3.6.6-.2.6-.5.6h-.6c-.1,0-.3-.2-.3-.4-.3.3-.4.6-.4.9v.6h2.5l-2.2,1.4h-.3l-3.4-2.1v-.8c0-.2,0-.3-.2-.4l-1-.6v3.1c0,.2,0,.3.2.4l3.4,2.2v.4l-2.4,1.5v-.9c0-.2,0-.3-.2-.4l-1-.6v4.1c0,.4.4.6.8.4l3.5-2.2,2,4.1-2.9,1.8c-.1,0-.2.2-.2.4v1.9l-1.5-.5c-.2,0-.3-.3-.3-.5v-1.1c0-.2-.1-.4-.3-.5l-.9-.3v3.6c0,.2.1.4.3.5l4.3,1.5c.3,0,.7,0,.7-.5v-2.2c0-.3.2-.5.5-.5h2.3l1.5,3.1c0,.2.3.3.4.3h2.6l-.5,1.5c0,.2-.3.3-.5.3h-1.1c-.2,0-.4,0-.5.3l-.3.9h3.6c.2,0,.4,0,.5-.3l1.5-4.3c.1-.3-.1-.7-.5-.7h-2.6c-.3,0-.6-.4-.5-.7l.7-2.1h1.4c1.8,0,3.3-1.4,3.3-3.2s-.1-1.1-.4-1.6l-1.8-3.9c-.3-.7.3-1.6,1.1-1.6h0c.1.3.4.5.7.5h.3c.9,0,1.6-.6,1.9-1.4h-3c-.4,0-.9,0-1.3.4-.8.6-1,1.6-.5,2.6l1.8,3.8c.1.3.2.6.2,1,0,1.3-1.1,2.3-2.4,2.3h-1.2c-1.1,0-2.1-.9-2.1-2.1s.2-1,.2-1l2.2-6.2c.5-1.4.4-3-.3-4.4-.3-.6-.8-1.1-1.4-1.6-1-.8-2.3-1.2-3.2-1.2s-1,0-1.4.3l.2.2Z"/>
    <path class="st0" d="M137.5,85.1c-.1,0-.3,0-.3-.3-.3-2.9-2.7-5.2-5.7-5.2s-.3,0-.4,0-.2,0-.3,0c-1-1.4-2.7-2.3-4.6-2.3s-3.6.9-4.6,2.3c0,0-.2,0-.3,0h-.4c-3,0-5.4,2.3-5.7,5.2,0,0,0,.3-.3.3-2.1.3-3.7,2.1-3.7,4.2s1.6,3.9,3.7,4.2c0,0,.3,0,.3.3.3,2.9,2.7,5.2,5.7,5.2s.3,0,.4,0,.2,0,.3,0c.5.6,1,1.1,1.7,1.5h0c.9.5,1.4,1.4,1.4,2.5v18.9c0,0,0,.3-.2.3l-6.9,2.4c0,0-.2.2-.2.3v.3h17.6v-.3c0,0,0-.3-.2-.3l-6.9-2.4c0,0-.2-.2-.2-.3v-18.9c0-1.1.6-2,1.5-2.5.7-.4,1.2-.9,1.7-1.5,0,0,.2,0,.3,0h.4c3,0,5.4-2.3,5.7-5.2,0,0,.1-.3.3-.3,2.1-.3,3.7-2.1,3.7-4.2s-1.6-3.9-3.7-4.2h-.1Z"/>
    <path class="st0" d="M121.7,120.1v-3.6l-.9.3c-.2,0-.3.3-.3.5v1.1c0,.2,0,.4-.3.5l-1.5.5v-1.9c0-.2,0-.3-.2-.4l-2.9-1.8,2-4.1,3.5,2.2c.3.2.8,0,.8-.4v-4.1l-1,.6c0,0-.2.2-.2.4v.9l-2.4-1.5v-.4l3.4-2.2c0,0,.2-.2.2-.4v-3.1l-1,.6c0,0-.2.2-.2.4v.8l-3.4,2.1h-.3l-2.2-1.4h2.5v-.6c0-.3,0-.6-.4-.9,0,.2,0,.3-.3.4h-.6c-.3,0-.5-.3-.5-.6s.3-.6.6-.6.3,0,.8.2c.2,0,.4,0,.6,0l.5-1h0s0,0,0-.2,0-.2-.2-.3l-1.4-.6c-.3-.4-.7-.7-1.2-.7l-.3-.7c-.4-.2-.9-.3-1.4-.3-.9,0-2.2.4-3.2,1.2-.6.5-1.1,1.1-1.4,1.6-.7,1.3-.8,2.9-.3,4.4l2.2,6.2s.2.6.2,1c0,1.1-.9,2.1-2.1,2.1h-1.2c-1.3,0-2.4-1-2.4-2.3s0-.7.2-1l1.8-3.8c.5-1,.2-2-.5-2.6-.4-.3-.8-.4-1.3-.4h-3c.3.8,1.1,1.4,1.9,1.4h.3c.3,0,.6-.2.7-.5h0c.8,0,1.4.8,1.1,1.6l-1.8,3.9c-.2.5-.4.9-.4,1.6,0,1.8,1.5,3.2,3.3,3.2h1.4l.7,2.1c0,.3,0,.7-.5.7h-2.6c-.3,0-.6.4-.5.7l1.5,4.3c0,.2.3.3.5.3h3.6l-.3-.9c0-.2-.3-.3-.5-.3h-1.1c-.2,0-.4,0-.5-.3l-.5-1.5h2.6c.2,0,.4,0,.4-.3l1.5-3.1h2.3c.3,0,.5.2.5.5v2.2c0,.3.3.6.7.5l4.3-1.5c.2,0,.3-.3.3-.5l.2-.2Z"/>
  </g>
  <path class="st0" d="M28.1,202.7c-.6-.6-1.5-.8-2.2-.8-1.8,0-3,1-3,3.1s.7,3.1,3,3.1,1.3-.1,2-.7v-1.5h-2.3v-1.8h4.1v4.2c-.8,1.2-2.1,1.8-3.9,1.8-3.7,0-5.1-2.5-5.1-5s1.6-5.1,5.1-5.1,2.5.4,3.6,1.5l-1.3,1.3h0ZM38.5,209.9c-3.1,0-5.2-1.9-5.2-5s2.1-5,5.2-5,5.2,1.9,5.2,5-2.1,5-5.2,5ZM38.5,201.8c-1.8,0-3.1,1.4-3.1,3.1s1.3,3.1,3.1,3.1,3.1-1.3,3.1-3.1-1.2-3.1-3.1-3.1ZM52.4,200.2c1.8,0,3.3.8,3.3,2.6s-.4,1.5-1.3,1.9c1.2.4,1.7,1.7,1.5,2.8-.3,1.5-1.6,2.2-3.5,2.2h-4.8v-9.5h4.8ZM49.8,203.9h2.6c.8,0,1.2-.3,1.2-.9s-.4-1-1.2-1h-2.6v1.9ZM49.8,207.9h2.6c1,0,1.4-.4,1.4-1.1s-.5-1.1-1.4-1.1h-2.6v2.2h0ZM60,209.7v-9.5h2.1v9.5h-2.1ZM73.9,209.7h-7.3v-9.5h7.1v1.9h-5v1.8h4.7v1.9h-4.7v1.9h5.2v2h0ZM86.5,209.7h-2.4l-2.4-3.1h-1.5v3.1h-2.1v-9.5h4.5c2.3,0,3.5,1.5,3.5,3.2s-.4,2.3-2.2,3l2.6,3.2v.2h0ZM80.2,202v2.8h2.4c1,0,1.4-.7,1.4-1.3s-.4-1.4-1.4-1.4h-2.4ZM97,206.4v-3c0,0,0-3.2,0-3.2h2.1v9.5h-1.8l-4.7-6.1v6.1h-2.2v-9.5h1.8l4.8,6.2h0ZM108.2,209.9c-3.1,0-5.2-1.9-5.2-5s2.1-5,5.2-5,5.2,1.9,5.2,5-2.1,5-5.2,5ZM108.2,201.8c-1.8,0-3.1,1.4-3.1,3.1s1.3,3.1,3.1,3.1,3.1-1.3,3.1-3.1-1.2-3.1-3.1-3.1ZM126.9,200.2c3.3,0,4.7,2.2,4.7,4.7s-1.4,4.8-4.7,4.8h-3.9v-9.5s3.9,0,3.9,0ZM125.1,207.7h1.8c2.1,0,2.6-1.5,2.6-2.9s-.7-2.8-2.6-2.8h-1.8v5.7ZM142.9,209.7h-7.3v-9.5h7.1v1.9h-5v1.8h4.7v1.9h-4.7v1.9h5.2v2h0ZM149.2,200.2v7.6h4.8v1.9h-6.9v-9.5h2.1,0ZM170.2,209.7h-7.3v-9.5h7.1v1.9h-5v1.8h4.7v1.9h-4.7v1.9h5.2v2h0ZM180,202.5c-.5-.6-1.5-.8-2.2-.8s-1.7.4-1.7,1,.8,1,2.1,1.1c1.9.2,3.7.9,3.7,3.1s-2,3.1-4,3.1-3.4-.6-4.2-2l1.3-1.3c.7.9,1.9,1.3,2.9,1.3s1.9-.4,1.9-1.1-.6-1.2-1.9-1.3c-2-.2-3.8-.7-3.8-2.9s1.8-2.9,3.8-2.9,2.6.3,3.6,1.5l-1.3,1.2h-.2ZM187.7,202.1h-2.9v-1.9h7.9v1.9h-2.9v7.6h-2.1v-7.6ZM202.4,208.1h-4.9l-.7,1.6h-2.3l4.3-9.5h2.3l4.3,9.5h-2.3l-.7-1.6h0ZM200,202.3l-1.6,3.9h3.3l-1.6-3.9h0ZM212.7,200.2c3.3,0,4.7,2.2,4.7,4.7s-1.4,4.8-4.7,4.8h-3.9v-9.5h3.9ZM210.9,207.7h1.8c2.1,0,2.6-1.5,2.6-2.9s-.7-2.8-2.6-2.8h-1.8v5.7ZM226.1,209.9c-3.1,0-5.2-1.9-5.2-5s2.1-5,5.2-5,5.2,1.9,5.2,5-2.1,5-5.2,5ZM226.1,201.8c-1.8,0-3.1,1.4-3.1,3.1s1.3,3.1,3.1,3.1,3.1-1.3,3.1-3.1-1.2-3.1-3.1-3.1ZM33.7,152.4v6.6h9.1v12.9c0,5.1-2.9,7.9-7.6,7.9s-7.2-2-7.5-7.4h-9.2l.7,1.8h0c.8,0,1.5.6,1.6,1.4,1.1,7.7,6.3,11.1,14.4,11.1s14.9-6.2,14.9-14.7v-19.6h-16.4ZM74,152.4h-10.9l.7,1.8h0c.7,0,1.1.7.8,1.3l-14.1,31.3h7.9l3.1-7.2h16.8l3.1,7.2h7.9l-15.4-34.4h0ZM64.3,173l5.7-13.3,5.6,13.3s-11.3,0-11.3,0ZM100.2,180v-27.7h-9.4l.7,1.8h0c.8,0,1.5.7,1.5,1.5v31.1h23.7v-6.7h-16.5ZM213.8,186.7c-10.5,0-17.7-6.5-17.7-17.2s7.2-17.2,17.7-17.2,17.7,6.6,17.7,17.2-7.2,17.2-17.7,17.2ZM213.8,158.9c-6.2,0-10.5,4.7-10.5,10.7s4.3,10.6,10.5,10.6,10.5-4.5,10.5-10.6-4.2-10.7-10.5-10.7ZM121.6,152.3h-2.1l.7,1.8h0c.8,0,1.5.7,1.5,1.5v31.1h7.3v-34.3h-7.4ZM159.5,157c-.7-.8-1.4-1.4-2.1-2h-.1c-2.8-2.3-6-3-10-3-6.7,0-12.9,3.5-13,10,0,7.7,6.1,9.5,13,10.1,4.5.4,6.7,1.6,6.6,4.4,0,2.3-2.7,3.9-6.6,3.9s-1.1,0-1.6-.1h-.3c-1.8-.3-3.8-1-5.5-2.1-.8-.5-.9-1.6-.3-2.3l-.9-1.7-1.5,1.6h0l-4.4,4.5c2.8,4.6,8.7,6.8,14.3,6.7,7.1,0,13.8-3.2,13.8-10.5s-6.1-10.1-12.6-10.6c-4.2-.4-7.1-.9-7.1-3.9s2.6-3.6,5.9-3.6,5.8.8,7.6,2.8l4.6-4,.2-.2ZM181.7,180c-7.7,0-10.3-5.4-10.3-10.2s2.9-10.5,10.3-10.5,5.5.8,7.5,2.7l4.2-4.1,1.9-1.8-1.8-.8h0c-.6.6-1.5.6-2.1.2-2.9-2-6.1-3-9.6-3-12,0-17.6,8.9-17.5,17.4,0,8.9,5,17,17.5,17s9.2-1.5,12.6-4.8l-4.5-5.1c-2,2-5.4,3.1-8.1,3.1h0Z"/>
</svg>